<svg id="Ig_icon" xmlns="http://www.w3.org/2000/svg" width="50" height="50" viewBox="0 0 50 50">
  <path id="Ig_icon-2" data-name="Ig_icon" d="M-2609-43a25,25,0,0,1,25-25,25,25,0,0,1,25,25,25,25,0,0,1-25,25A25,25,0,0,1-2609-43Zm1.563,0A23.438,23.438,0,0,0-2584-19.562,23.438,23.438,0,0,0-2560.562-43,23.438,23.438,0,0,0-2584-66.437,23.438,23.438,0,0,0-2607.438-43Zm18.847,11.151a7,7,0,0,1-4.917-1.9,6.945,6.945,0,0,1-1.9-4.917c-.11-1.937-.11-7.744,0-9.681a6.969,6.969,0,0,1,1.9-4.917,6.973,6.973,0,0,1,4.917-1.89c1.938-.111,7.744-.111,9.681,0a6.983,6.983,0,0,1,4.917,1.9,6.94,6.94,0,0,1,1.9,4.917c.11,1.937.11,7.739,0,9.676a6.988,6.988,0,0,1-1.9,4.917,6.941,6.941,0,0,1-4.917,1.9c-.968.055-2.9.082-4.84.082S-2587.622-31.794-2588.591-31.849Zm11.76-2.5a3.965,3.965,0,0,0,2.231-2.231c.612-1.539.471-5.21.471-6.917s.141-5.373-.471-6.917a3.96,3.96,0,0,0-2.231-2.23c-1.539-.608-5.21-.472-6.917-.472s-5.373-.141-6.917.472a3.957,3.957,0,0,0-2.23,2.23c-.607,1.539-.471,5.21-.471,6.917s-.141,5.372.471,6.917a3.961,3.961,0,0,0,2.23,2.231c1.54.607,5.21.471,6.917.471S-2578.375-33.74-2576.831-34.352Zm-12.933-9.148a6.006,6.006,0,0,1,6.017-6.016,6.007,6.007,0,0,1,6.017,6.016,6.007,6.007,0,0,1-6.017,6.016A6.006,6.006,0,0,1-2589.764-43.5Zm2.1,0a3.919,3.919,0,0,0,3.912,3.911,3.919,3.919,0,0,0,3.911-3.911,3.916,3.916,0,0,0-3.911-3.912A3.917,3.917,0,0,0-2587.659-43.5Zm8.771-6.263a1.4,1.4,0,0,1,1.4-1.4,1.4,1.4,0,0,1,1.4,1.4,1.4,1.4,0,0,1-1.4,1.4A1.4,1.4,0,0,1-2578.888-49.763Z" transform="translate(2609 68)"/>
</svg>
