<svg id="Logo_Terezakochova" xmlns="http://www.w3.org/2000/svg" xmlns:xlink="http://www.w3.org/1999/xlink" width="475" height="196.704" viewBox="0 0 475 196.704">
  <defs>
    <clipPath id="clip-path">
      <rect id="Rectangle_323" data-name="Rectangle 323" width="475" height="196.704" fill="none"/>
    </clipPath>
  </defs>
  <g id="Group_821" data-name="Group 821" clip-path="url(#clip-path)">
    <path id="Path_1480" data-name="Path 1480" d="M60.3,157.624a5.331,5.331,0,0,1,3.974,1.59l.9-.9a6.514,6.514,0,0,0-4.915-1.955A6.824,6.824,0,1,0,60.245,170a6.541,6.541,0,0,0,4.935-1.973l-.9-.9a5.278,5.278,0,0,1-3.974,1.609,5.557,5.557,0,1,1,0-11.112" transform="translate(9.189 26.608)" fill="#161615"/>
    <path id="Path_1481" data-name="Path 1481" d="M75.084,156.359a6.825,6.825,0,1,0,7.047,6.821,6.757,6.757,0,0,0-7.047-6.821m0,12.377a5.556,5.556,0,1,1,5.625-5.556,5.459,5.459,0,0,1-5.625,5.556" transform="translate(11.744 26.608)" fill="#161615"/>
    <path id="Path_1482" data-name="Path 1482" d="M90.192,156.457l-6.144,13.411h1.479l1.612-3.583h7.487l1.612,3.583h1.5l-6.145-13.411Zm-2.534,8.679,3.225-7.2,3.226,7.2Z" transform="translate(14.512 26.625)" fill="#161615"/>
    <path id="Path_1483" data-name="Path 1483" d="M106.8,157.624a5.334,5.334,0,0,1,3.975,1.59l.9-.9a6.516,6.516,0,0,0-4.915-1.955,6.824,6.824,0,1,0-.02,13.642,6.543,6.543,0,0,0,4.935-1.973l-.9-.9a5.281,5.281,0,0,1-3.975,1.609,5.557,5.557,0,1,1,0-11.112" transform="translate(17.217 26.608)" fill="#161615"/>
    <path id="Path_1484" data-name="Path 1484" d="M125.609,162.435H117.2v-5.977h-1.42v13.411h1.42V163.68h8.41v6.189h1.4V156.458h-1.4Z" transform="translate(19.99 26.625)" fill="#161615"/>
    <rect id="Rectangle_321" data-name="Rectangle 321" width="1.421" height="13.411" transform="translate(155.218 183.082)" fill="#161615"/>
    <path id="Path_1485" data-name="Path 1485" d="M150.414,167.34l-8.66-10.883h-1.17v13.411H142V158.986l8.64,10.883h1.17V156.457h-1.4Z" transform="translate(24.273 26.625)" fill="#161615"/>
    <path id="Path_1486" data-name="Path 1486" d="M163.314,157.624a5.486,5.486,0,0,1,4.052,1.572l.883-.9a6.636,6.636,0,0,0-4.992-1.935A6.826,6.826,0,1,0,163.238,170a7.425,7.425,0,0,0,4.935-1.706V163.18h-1.365V167.7a5.818,5.818,0,0,1-3.513,1.034,5.559,5.559,0,1,1,.02-11.112" transform="translate(26.962 26.608)" fill="#161615"/>
    <path id="Path_1487" data-name="Path 1487" d="M190.522,164.134l-1.113-.344a8.382,8.382,0,0,1-.9,2.586l-3.687-3.794c2.188-1.264,2.995-2.2,2.995-3.543,0-1.667-1.229-2.664-3.129-2.664-2.074,0-3.4,1.15-3.4,2.855,0,1.034.383,1.84,1.691,3.179-2.458,1.418-3.38,2.587-3.38,4.177,0,2.03,1.881,3.411,4.512,3.411a5.941,5.941,0,0,0,4.492-1.821l1.862,1.916.787-.9-1.92-1.972a9.186,9.186,0,0,0,1.189-3.086m-7.967-4.923c0-1.073.787-1.821,2.132-1.821,1.247,0,1.958.672,1.958,1.666,0,.96-.634,1.629-2.574,2.741-1.228-1.245-1.516-1.8-1.516-2.586m1.632,9.655c-1.94,0-3.246-.957-3.246-2.414,0-1.188.653-2.03,2.8-3.257l4.052,4.158a4.675,4.675,0,0,1-3.609,1.513" transform="translate(31.01 26.611)" fill="#161615"/>
    <path id="Path_1488" data-name="Path 1488" d="M209.463,166.4l-5.837-9.943h-1.17v13.411h1.364V159.2l5.278,8.966h.673l5.28-9.024v10.729h1.363V156.457h-1.17Z" transform="translate(34.956 26.625)" fill="#161615"/>
    <path id="Path_1489" data-name="Path 1489" d="M222.787,163.661h6.95v-1.206h-6.95v-4.771h7.795v-1.226h-9.216v13.411h9.5v-1.226h-8.083Z" transform="translate(38.221 26.625)" fill="#161615"/>
    <path id="Path_1490" data-name="Path 1490" d="M245.423,167.34l-8.659-10.883h-1.171v13.411h1.421V158.986l8.639,10.883h1.171V156.457h-1.4Z" transform="translate(40.677 26.625)" fill="#161615"/>
    <path id="Path_1491" data-name="Path 1491" d="M250.377,157.684H255.1v12.185h1.421V157.684h4.723v-1.226H250.377Z" transform="translate(43.23 26.625)" fill="#161615"/>
    <path id="Path_1492" data-name="Path 1492" d="M270.738,156.359a6.825,6.825,0,1,0,7.046,6.821,6.757,6.757,0,0,0-7.046-6.821m0,12.377a5.556,5.556,0,1,1,5.625-5.556,5.459,5.459,0,0,1-5.625,5.556" transform="translate(45.526 26.608)" fill="#161615"/>
    <path id="Path_1493" data-name="Path 1493" d="M292.22,161.056c0-2.874-2.074-4.6-5.492-4.6H281.7v13.411h1.421v-4.254h3.609a9.532,9.532,0,0,0,1.075-.057l3.071,4.311h1.556l-3.283-4.6a4.157,4.157,0,0,0,3.072-4.214m-5.53,3.353h-3.571v-6.725h3.571c2.689,0,4.109,1.226,4.109,3.372,0,2.107-1.42,3.353-4.109,3.353" transform="translate(48.638 26.625)" fill="#161615"/>
    <rect id="Rectangle_322" data-name="Rectangle 322" width="1.421" height="13.411" transform="translate(348.057 183.082)" fill="#161615"/>
    <path id="Path_1494" data-name="Path 1494" d="M314.86,167.34,306.2,156.457h-1.172v13.411h1.421V158.986l8.639,10.883h1.171V156.457h-1.4Z" transform="translate(52.666 26.625)" fill="#161615"/>
    <path id="Path_1495" data-name="Path 1495" d="M327.76,157.624a5.486,5.486,0,0,1,4.052,1.572l.883-.9a6.634,6.634,0,0,0-4.992-1.935A6.826,6.826,0,1,0,327.684,170a7.42,7.42,0,0,0,4.935-1.706V163.18h-1.364V167.7a5.823,5.823,0,0,1-3.513,1.034,5.559,5.559,0,1,1,.019-11.112" transform="translate(55.355 26.608)" fill="#161615"/>
    <path id="Path_1496" data-name="Path 1496" d="M288.064,131.106c1.187-1.481.741-2.591-.15-2.591-.592,0-1.259.444-1.854,1.407C282.423,136.068,275,147.1,263.8,147.1c-15.587,0-17-27.7-19.147-34.957,11.8-12.517,25.083-23.847,38.443-34.661,4.973-4,10.02-7.923,14.992-11.848a.948.948,0,0,0,.3-.668.788.788,0,0,0-.67-.666,1.1,1.1,0,0,0-.52.147C269.954,84,243.459,105.259,222.232,131.4c.15-.369.3-.666.444-1.037l.967-2.075c.148-.369.294-.666.444-1.034q9.463-20.552,18.851-41.177V86c2.9-6.3,9.871-20.738,9.871-27.106,0-4.444-3.118-6-7.051-6-13.062,0-33.991,11.775-46.015,19.107-5.567,3.405-30.205,19.034-30.205,24.884,0,1.927,2,2.221,3.488,2.221,1.56,0,3.118-.294,4.75-.443,3.118-.3,6.234-.666,9.425-.666,17.813,0,28.2,7.48,28.2,25.4a72.445,72.445,0,0,1-1.56,14.516c-1.337,2.593-10.228,19.493-10.228,20.679a2.692,2.692,0,0,0,2.746,2.741c1.929,0,2.745-2,3.638-3.334,7.866-12.295,21.137-31.122,31.007-41.936,2.3,11.333,8.61,33.254,22.637,33.254,9.869,0,18.924-11.107,24.417-18.218M187.277,96c-3.191,0-6.382.222-9.575.518l-2.448.222c-.817.075-1.632.147-2.449.147a1.9,1.9,0,0,1-.892-.147c.817-2.443,6.828-7.259,9.13-8.886,13.21-10,47.943-31.4,64.05-31.4,1.929,0,4.081-.073,4.081,2.518,0,2.15-1.038,5.111-1.779,7.111-1.56,4-3.341,7.924-5.122,11.777-8.609,18.587-17.441,37.1-26.273,55.543a70.312,70.312,0,0,0,.891-10.073C216.89,104.223,205.534,96,187.277,96" transform="translate(29.273 9.002)" fill="#161615"/>
    <path id="Path_1497" data-name="Path 1497" d="M267.737,97.834c-5.625,0-13.019,5.739-13.019,11.539,0,3.343,2.717,4.981,5.751,4.981a17.087,17.087,0,0,0,11.5-5.043c1.325-1.389,2.653-3.217,2.653-5.235,0-2.269-1.642-3.594-3.855-3.594a10.381,10.381,0,0,0-1.453.126,1.706,1.706,0,0,0,.317-.947,1.807,1.807,0,0,0-1.9-1.828m2.527,4.036c1.325,0,2.717.441,2.717,2.017a4.612,4.612,0,0,1-.885,2.4c-2.213,3.28-7.2,5.549-11.123,5.549-1.642,0-3.348-.506-3.348-2.46,0-3.657,5.244-7.125,8.595-7.692a10.564,10.564,0,0,0-4.615,7v.062a.365.365,0,0,0,.381.379.4.4,0,0,0,.379-.316l.379-1.072a4.864,4.864,0,0,1,.442-1.009c1.39-2.9,3.791-4.855,7.078-4.855" transform="translate(43.98 16.649)" fill="#161615"/>
    <path id="Path_1498" data-name="Path 1498" d="M345.661,105.186a10.2,10.2,0,0,0-1.453.128,1.706,1.706,0,0,0,.317-.948,1.807,1.807,0,0,0-1.895-1.828c-4.762,0-10.773,4.116-12.512,8.9-2.737,2.219-7.662,5.734-12.2,5.734-.251,0-1.074-.063-1.074-.441,0-2.144,4.929-6.432,4.929-9.522,0-1.513-1.578-2.081-2.906-2.081-5.055,0-12.2,4.161-17.062,7.882.758-1.766,1.516-3.532,2.338-5.3,9.352-7.692,28.057-23.834,28.057-32.6,0-2.4-1.327-4.919-3.981-4.919-7.078,0-19.147,19.927-22.434,25.854-.938,1.66-5.387,10.071-8.181,16a33.694,33.694,0,0,1-16.909,4.744c-1.644,0-3.666-.441-3.666-2.4,0-3.152,4.93-7.252,7.961-7.252.253,0,1.264.126,1.264.5,0,1.387-2.274,1.387-2.274,3.217a1.941,1.941,0,0,0,1.9,1.891c2.085,0,3.919-3.09,3.919-5.046,0-2.647-2.4-3.845-4.74-3.845-4.74,0-10.553,5.739-10.553,10.467,0,3.09,2.717,4.6,5.5,4.6,5.205,0,11.688-2.052,16.764-5.07a16.7,16.7,0,0,0-1.468,4,2.236,2.236,0,0,0,2.21,2.207,2.517,2.517,0,0,0,.949-.19,1.579,1.579,0,0,0,.885-.5c1.39-1.325,2.589-2.714,4.045-3.974,3.413-2.9,11.058-8.2,15.482-8.2a2.026,2.026,0,0,1,.884.125l.062.064c0,2.016-4.487,6.493-4.487,9.4,0,1.261,1.328,1.765,2.4,1.765,4.207,0,8.562-2.8,12.016-5.755a7.125,7.125,0,0,0-.129,1.278c0,3.343,2.717,4.983,5.751,4.983a17.089,17.089,0,0,0,11.5-5.045c1.325-1.388,2.653-3.216,2.653-5.235,0-2.269-1.642-3.594-3.855-3.594M325.055,74.54c.758-.63,2.211-1.7,3.159-1.7,1.139,0,1.578,1.387,1.578,2.27,0,7.566-15.292,21.756-24.455,29.953,4.171-8.891,12.764-24.657,19.717-30.52m21.933,36.447c-2.21,3.28-7.2,5.549-11.123,5.549-1.642,0-3.348-.5-3.348-2.46,0-3.656,5.244-7.125,8.594-7.692a10.567,10.567,0,0,0-4.614,7v.062a.366.366,0,0,0,.381.38.4.4,0,0,0,.379-.317l.379-1.072a4.8,4.8,0,0,1,.442-1.009c1.39-2.9,3.791-4.855,7.078-4.855,1.325,0,2.717.442,2.717,2.017a4.62,4.62,0,0,1-.885,2.4" transform="translate(47.395 11.944)" fill="#161615"/>
    <path id="Path_1499" data-name="Path 1499" d="M362.736,114.007c2.528,0,7.836-2.522,10.111-3.783.191,1.7,1.263,3.342,3.1,3.342,4.108,0,10.363-5.17,13.143-8.009.065-.125.128-.188.128-.314a.366.366,0,0,0-.38-.38c-.379,0-8.026,7.191-12.7,7.191-1.832,0-1.517-2.4-1.517-3.533,1.77-.883,3.666-3.089,3.666-5.108,0-3.027-3.349-3.908-5.814-3.908-5.309,0-13.461,4.728-13.461,10.656a3.683,3.683,0,0,0,3.729,3.846m-.063-6.558a12.988,12.988,0,0,1,9.731-4.667,3.87,3.87,0,0,1,2.341.631c-.823,1.389-3.161,1.955-3.161,3.595a1.909,1.909,0,0,0,.632,1.388c-2.338,1.134-6.825,3.278-9.414,3.278a1.277,1.277,0,0,1-1.264-1.45,4.948,4.948,0,0,1,1.136-2.774" transform="translate(61.986 16.933)" fill="#161615"/>
    <path id="Path_1500" data-name="Path 1500" d="M367.893,94.846c.19.062.19,0,.379-.128,1.706-1.325,3.412-2.585,5.055-3.972a24.657,24.657,0,0,0,2.338-2.019,2.478,2.478,0,0,0,.505-.882,1.92,1.92,0,0,0-3.159-1.641c-.317.19-5.435,8.135-5.435,8.26a.356.356,0,0,0,.317.38" transform="translate(63.466 14.592)" fill="#161615"/>
    <path id="Path_1501" data-name="Path 1501" d="M448.116,181.957c-45.932,31.922-49.824,4.936-46.472-37.667.2-4.238.575-8.949,1.026-14a4.457,4.457,0,0,0,3.061,1.091,8.27,8.27,0,0,0,4.8-1.45c5.624-3.972,9.385-12.99,12.418-19.107a.383.383,0,0,0,.062-.253.431.431,0,0,0-.441-.441.383.383,0,0,0-.38.188c-3.033,4.478-9.7,17.91-15.578,17.91-1.011,0-2.148-.063-2.148-1.387,0-3.343,1.278-8.2,1.278-9.588a2.1,2.1,0,0,0-1.666-2.078C408.407,68.372,412.1,5.727,360.6.239,293.742-4.874,182.764,73.5,127.231,111.328q-5.33,3.732-10.632,7.5c-.223.147-.439.3-.651.461q-6.5,4.62-13,9.256c-2.823,1.219-5.63,2.144-7.579,2.144h-.318c-.631,0-1.072-.064-1.072-.883,0-1.7,7.076-7.188,8.657-10.09a1.105,1.105,0,0,0,.379-.819c0-3.53-5.876-5.233-10.553-6.117a2.943,2.943,0,0,0-2.655-1.891c-1.011,0-3.034.882-3.034,2.081a.8.8,0,0,0,.632.756c.7.188,1.517.252,2.276.441.442.063,1.074.188,1.706.316-.128,2.711-3.6,6.622-5.561,8.26a.476.476,0,0,0-.057.088c-4.473,3.322-9.644,5.966-15.429,5.966-2.086,0-4.993-.693-4.993-3.279a6.127,6.127,0,0,1,1.264-3.027c.632.947,2.275,1.45,4.17,1.45,3.6,0,8.089-1.7,8.089-4.666,0-2.27-2.654-2.648-4.423-2.648-4.487,0-10.869,3.595-10.869,8.639,0,3.594,3.1,5.043,6.257,5.043,5.84,0,11.986-3.108,16.474-6.927l.022-.008c2.148-1.45,6-5.739,6.382-8.576a18.446,18.446,0,0,1,6.447,2.585,10.177,10.177,0,0,0-.885,1.2c-1.9,2.711-7.457,8.072-7.457,11.224,0,2.522,1.77,3.53,4.108,3.53a8.11,8.11,0,0,0,1.571-.2c-22.031,15.671-44.2,31.111-67.626,44.588-6.654,3.412-13.583,7.79-21.118,8.348-10.409.157,8.784-33.314,11.474-38.817.537-.965,2.21-3.981,6.8-12.263,9.434-17.024,24.208-38.548,35.834-54.187a23.043,23.043,0,0,0,2.149-2.774,1.909,1.909,0,0,0,.317-1.009,1.943,1.943,0,0,0-1.9-1.892,1.721,1.721,0,0,0-1.327.568A9.951,9.951,0,0,0,60.1,76.962l-.949,1.325c-1.643,2.207-3.224,4.413-4.8,6.684Q42.78,101.334,31.975,118.266a57.369,57.369,0,0,0,1.832-13.621c0-17.592-9.162-26.107-26.6-26.107-1.075,0-2.149.064-3.224.126,8.973-3.026,18.39-4.414,27.743-5.675a559.594,559.594,0,0,1,72.672-4.667c11.184,0,22.432.128,33.554,1.073,1.453.125,2.906.316,4.422.316a1.889,1.889,0,0,0,1.9-1.83c0-1.765-1.517-1.828-2.843-1.891-7.838-.7-15.735-.82-23.573-.82-30.647,0-64.2,2.017-94.409,7.441C16.24,73.936,6.95,75.639.379,78.665a.693.693,0,0,0-.379.63c0,.442.442.506.821.506l.063-.063c2.085-.125,4.234-.315,6.319-.315,15.481,0,25.025,7.756,25.025,23.709a64.28,64.28,0,0,1-3.855,20.748c-7.568,12.953-12.509,21.532-12.509,21.532-3.675,7.042-7.287,14.129-10.409,21.52-13.07,30.4,6.214,24.658,25.02,13.649,20.68-11.912,40.09-25.8,59.536-39.536q11.245-8.144,22.526-16.243c-.012.154-.036.307-.036.465,0,3.594,3.1,5.043,6.257,5.043,5.6,0,11.479-2.854,15.909-6.453,1.772-1.189,6.309-4.265,9.368-4.265.317,0,1.2.062,1.2.441,0,2.523-6.446,6.369-6.7,7.062a1.283,1.283,0,0,0-.379.947c0,1.135.885,1.513,1.9,1.513a15.9,15.9,0,0,1,3.476-.5,2.793,2.793,0,0,1,2.717,1.513c-5.182,4.224-10.365,8.45-15.356,12.865-4.487,3.973-16.809,14.88-16.809,20.871,0,3.405,2.337,5.361,5.686,5.361,12.322,0,29.891-25.413,29.891-36.763a8.124,8.124,0,0,0-.632-3.47c2.021-1.679,3.79-3.142,5.182-4.311a6.752,6.752,0,0,0-.314,1.979,3.683,3.683,0,0,0,3.729,3.846c2.527,0,7.9-2.522,10.174-3.783.127,1.639,1.2,3.342,3.034,3.342,4.108,0,10.363-5.17,13.143-8.009a.479.479,0,0,0,.128-.314.366.366,0,0,0-.381-.38c-.379,0-8.025,7.191-12.7,7.191-1.9,0-1.516-2.271-1.516-3.533a2.605,2.605,0,0,0,.7-.441c1.516-1.134,2.97-2.648,2.97-4.667,0-3.027-3.349-3.908-5.815-3.908-4.212,0-10.2,2.983-12.5,7.174-.152.131-.306.264-.457.392-1.9,1.577-3.791,3.152-5.748,4.667q-1.611-2.554-5.689-2.649c2.466-1.134,5.435-3.342,5.435-6.053,0-2.333-1.77-3.342-3.919-3.342-3.245,0-7.409,3.784-9.957,6.333-4.433,3.262-9.548,5.837-15.259,5.837-2.085,0-4.991-.693-4.991-3.279a5.435,5.435,0,0,1,1.073-2.724l.278-.2c.681.876,2.26,1.346,4.082,1.346,3.6,0,8.089-1.7,8.089-4.666,0-2.027-2.112-2.542-3.825-2.629,27.389-19.454,55.115-38.414,83.794-55.94C249.1,36.272,311.783-1.74,360.462,1.541c46.64,3.921,46.32,59.888,44.246,95.372-.306,6.076-.77,12.145-1.285,18.215-1.474.109-1.961,1.848-2.335,3.2a18.3,18.3,0,0,0-.287,8.2,6.991,6.991,0,0,0,1.346,3.221A369.783,369.783,0,0,0,400.326,168c.367,18.122,5.421,34.905,27.241,25.855,17.74-7.818,32.839-20.234,47.432-32.908a336.746,336.746,0,0,1-26.883,21.013M74.451,119.022a5.7,5.7,0,0,1,1.77.253c-1.2,1.45-6.193,1.7-8.025,1.7a10.515,10.515,0,0,1,6.255-1.955M19.26,147.2h0m148.034-27.486a3.75,3.75,0,0,1,2.338.631c-.821,1.388-3.159,1.955-3.159,3.594a1.908,1.908,0,0,0,.631,1.389c-2.337,1.134-6.825,3.278-9.414,3.278-.884,0-1.263-.692-1.263-1.45a4.936,4.936,0,0,1,1.136-2.774,13.094,13.094,0,0,1,9.731-4.667m-20.54,13.243c0,7.819-7.646,19.61-12.7,25.413-3.159,3.532-9.163,9.4-14.218,9.4-2.274,0-3.98-1.072-3.98-3.53,0-6.56,18.452-22.512,30.774-32.791a5.917,5.917,0,0,1,.126,1.513m-23.383-13.937a5.7,5.7,0,0,1,1.77.253c-1.055,1.275-5.047,1.624-7.239,1.69l1.891-1.349a11.321,11.321,0,0,1,3.578-.593" transform="translate(0 0)" fill="#161615"/>
  </g>
</svg>
