<svg id="Mail_icon" xmlns="http://www.w3.org/2000/svg" width="50" height="50" viewBox="0 0 50 50">
  <path id="Mail_icon-2" data-name="Mail_icon" d="M48.437,25A23.437,23.437,0,1,0,25,48.437,23.437,23.437,0,0,0,48.437,25ZM0,25A25,25,0,1,1,25,50,25,25,0,0,1,0,25Zm15.625-7.813a1.567,1.567,0,0,0-1.562,1.563v.713l.41.244,9.482,5.781a2.01,2.01,0,0,0,2.09,0l9.492-5.781.41-.244V18.75a1.567,1.567,0,0,0-1.562-1.562H15.625Zm20.312,4.1-9.082,5.527a3.585,3.585,0,0,1-3.711,0l-9.082-5.527V31.25a1.567,1.567,0,0,0,1.562,1.563h18.75a1.567,1.567,0,0,0,1.562-1.563ZM15.625,15.625h18.75A3.122,3.122,0,0,1,37.5,18.75v12.5a3.122,3.122,0,0,1-3.125,3.125H15.625A3.122,3.122,0,0,1,12.5,31.25V18.75A3.122,3.122,0,0,1,15.625,15.625Z"/>
</svg>
