<svg id="Phone_icon" xmlns="http://www.w3.org/2000/svg" width="50" height="50" viewBox="0 0 50 50">
  <path id="Phone_icon-2" data-name="Phone_icon" d="M25,48.437A23.437,23.437,0,1,0,1.562,25,23.437,23.437,0,0,0,25,48.437ZM25,0A25,25,0,1,1,0,25,25,25,0,0,1,25,0Zm6.563,13.32A1.166,1.166,0,0,0,30.176,14l-1.953,4.688a1.18,1.18,0,0,0,.342,1.357l2.412,1.973a.8.8,0,0,1,.215.938,17.284,17.284,0,0,1-8.223,8.223.769.769,0,0,1-.937-.215l-1.973-2.412a1.18,1.18,0,0,0-1.357-.342l-4.688,1.953a1.176,1.176,0,0,0-.684,1.387l1.172,4.3a1.172,1.172,0,0,0,1.133.859A21.093,21.093,0,0,0,36.729,15.615a1.172,1.172,0,0,0-.859-1.133l-4.3-1.172ZM28.73,13.4a2.728,2.728,0,0,1,3.242-1.582l4.3,1.172a2.728,2.728,0,0,1,2.012,2.637A22.66,22.66,0,0,1,15.625,38.281a2.728,2.728,0,0,1-2.637-2.012l-1.172-4.3A2.738,2.738,0,0,1,13.4,28.73l4.688-1.953a2.718,2.718,0,0,1,3.164.791l1.582,1.924a15.765,15.765,0,0,0,6.66-6.66L27.568,21.26a2.718,2.718,0,0,1-.791-3.164l1.953-4.687Z"/>
</svg>
