<svg id="Whatsapp_icon" xmlns="http://www.w3.org/2000/svg" width="50" height="50" viewBox="0 0 50 50">
  <path id="Whatsapp_icon-2" data-name="Whatsapp_icon" d="M-2609-43a25,25,0,0,1,25-25,25,25,0,0,1,25,25,25,25,0,0,1-25,25A25,25,0,0,1-2609-43Zm1.563,0A23.438,23.438,0,0,0-2584-19.562,23.438,23.438,0,0,0-2560.562-43,23.438,23.438,0,0,0-2584-66.437,23.438,23.438,0,0,0-2607.438-43Zm13.6,4.961a11.642,11.642,0,0,1-1.551-5.815,11.645,11.645,0,0,1,11.631-11.631,11.542,11.542,0,0,1,8.225,3.41,11.679,11.679,0,0,1,3.515,8.226,11.743,11.743,0,0,1-11.74,11.631h-.005a11.6,11.6,0,0,1-5.558-1.415l-6.167,1.619Zm5.155,2.515a9.648,9.648,0,0,0,4.925,1.347,9.775,9.775,0,0,0,9.776-9.671,9.707,9.707,0,0,0-2.939-6.837,9.581,9.581,0,0,0-6.832-2.834,9.68,9.68,0,0,0-9.671,9.666,9.642,9.642,0,0,0,1.477,5.144l.231.367-.975,3.568,3.657-.958Zm5.161-3.51a12.99,12.99,0,0,1-4.967-4.39,5.7,5.7,0,0,1-1.183-3.007,3.266,3.266,0,0,1,1.016-2.426,1.076,1.076,0,0,1,.776-.361c.194,0,.387,0,.555.01h.067c.168,0,.379,0,.587.5.241.582.823,2.012.9,2.159a.539.539,0,0,1,.026.508c-.555,1.112-1.153,1.075-.854,1.588A7.912,7.912,0,0,0-2582.645-41c.288.147.461.121.629-.073s.728-.849.922-1.142.388-.247.655-.147,1.7.8,1.985.943.482.214.55.346a2.425,2.425,0,0,1-.167,1.383,2.978,2.978,0,0,1-1.959,1.382,4.578,4.578,0,0,1-.681.056A7.1,7.1,0,0,1-2583.519-39.035Z" transform="translate(2609 68)"/>
</svg>
